<svg width="32" height="32" viewBox="0 0 32 32" fill="none" xmlns="http://www.w3.org/2000/svg">
<path d="M11.547 25.752C20.604 25.752 25.557 18.249 25.557 11.742C25.557 11.529 25.557 11.317 25.543 11.106C26.5069 10.4087 27.3389 9.54517 28 8.55601C27.1015 8.95466 26.1482 9.21624 25.172 9.33201C26.1997 8.7163 26.9687 7.74828 27.336 6.60801C26.3697 7.18145 25.3124 7.5856 24.21 7.80301C23.4675 7.01355 22.4856 6.49079 21.4161 6.31562C20.3466 6.14044 19.2492 6.32262 18.2937 6.83397C17.3382 7.34531 16.5779 8.15732 16.1303 9.14432C15.6828 10.1313 15.573 11.2383 15.818 12.294C13.8604 12.1959 11.9453 11.6872 10.197 10.801C8.44877 9.91483 6.90639 8.67091 5.67 7.15001C5.04049 8.23407 4.84778 9.51729 5.1311 10.7384C5.41442 11.9596 6.15247 13.0269 7.195 13.723C6.41129 13.6996 5.64472 13.488 4.96 13.106V13.169C4.96031 14.3058 5.3538 15.4075 6.07373 16.2873C6.79367 17.1671 7.79573 17.7708 8.91 17.996C8.18515 18.1935 7.42469 18.2222 6.687 18.08C7.0016 19.0584 7.61411 19.914 8.43888 20.5272C9.26365 21.1404 10.2594 21.4805 11.287 21.5C10.266 22.3022 9.09691 22.8953 7.84655 23.2453C6.59619 23.5953 5.28909 23.6955 4 23.54C6.25155 24.9853 8.87147 25.7522 11.547 25.749" fill="black"/>
</svg>
