<svg width="32" height="34" viewBox="0 0 32 34" fill="none" xmlns="http://www.w3.org/2000/svg">
<path d="M22.406 11.7236C23.2013 11.7236 23.846 11.0386 23.846 10.1936C23.846 9.34864 23.2013 8.66364 22.406 8.66364C21.6107 8.66364 20.966 9.34864 20.966 10.1936C20.966 11.0386 21.6107 11.7236 22.406 11.7236Z" fill="black"/>
<path d="M16 10.4529C14.7813 10.4529 13.5899 10.8369 12.5766 11.5563C11.5633 12.2757 10.7735 13.2982 10.3071 14.4945C9.84068 15.6909 9.71865 17.0073 9.95642 18.2773C10.1942 19.5473 10.7811 20.7139 11.6428 21.6295C12.5046 22.5452 13.6026 23.1687 14.7979 23.4213C15.9932 23.674 17.2322 23.5443 18.3581 23.0488C19.4841 22.5532 20.4464 21.7141 21.1235 20.6374C21.8006 19.5607 22.162 18.2949 22.162 17C22.162 15.2636 21.5128 13.5983 20.3572 12.3705C19.2016 11.1427 17.6343 10.4529 16 10.4529ZM16 21.25C15.2089 21.25 14.4355 21.0007 13.7777 20.5338C13.1199 20.0668 12.6072 19.403 12.3045 18.6264C12.0017 17.8498 11.9225 16.9953 12.0769 16.1709C12.2312 15.3465 12.6122 14.5892 13.1716 13.9948C13.731 13.4004 14.4437 12.9957 15.2197 12.8317C15.9956 12.6677 16.7998 12.7518 17.5307 13.0735C18.2617 13.3952 18.8864 13.9399 19.3259 14.6388C19.7654 15.3377 20 16.1594 20 17C20 18.1272 19.5786 19.2082 18.8284 20.0052C18.0783 20.8022 17.0609 21.25 16 21.25Z" fill="black"/>
<path d="M16 6.54713C19.204 6.54713 19.584 6.55987 20.849 6.6215C21.6098 6.6311 22.3635 6.77953 23.077 7.06031C23.5947 7.27249 24.0648 7.59745 24.4571 8.01431C24.8495 8.43116 25.1553 8.93067 25.355 9.48069C25.6193 10.2388 25.759 11.0395 25.768 11.8479C25.826 13.192 25.838 13.5957 25.838 17.0011C25.838 20.4064 25.826 20.808 25.768 22.1521C25.759 22.9605 25.6193 23.7612 25.355 24.5193C25.1553 25.0693 24.8495 25.5688 24.4571 25.9857C24.0648 26.4025 23.5947 26.7275 23.077 26.9397C22.3635 27.2205 21.6098 27.3689 20.849 27.3785C19.584 27.4401 19.204 27.4529 16 27.4529C12.796 27.4529 12.416 27.4401 11.151 27.3785C10.3902 27.3689 9.63653 27.2205 8.923 26.9397C8.40534 26.7275 7.93521 26.4025 7.54288 25.9857C7.15055 25.5688 6.84469 25.0693 6.645 24.5193C6.38073 23.7612 6.24103 22.9605 6.232 22.1521C6.174 20.808 6.162 20.4042 6.162 17C6.162 13.5957 6.174 13.192 6.232 11.8479C6.24103 11.0395 6.38073 10.2388 6.645 9.48069C6.84469 8.93067 7.15055 8.43116 7.54288 8.01431C7.93521 7.59745 8.40534 7.27249 8.923 7.06031C9.63653 6.77953 10.3902 6.6311 11.151 6.6215C12.416 6.55987 12.796 6.54713 16 6.54713ZM16 4.25C12.741 4.25 12.332 4.26488 11.052 4.3265C10.0568 4.34785 9.07216 4.54832 8.14 4.91938C7.34272 5.24694 6.61866 5.74789 6.01422 6.39011C5.40978 7.03232 4.9383 7.80164 4.63 8.64875C4.28066 9.6395 4.09198 10.686 4.072 11.7438C4.014 13.1038 4 13.5363 4 17C4 20.4638 4.014 20.8972 4.072 22.2572C4.0921 23.3147 4.28077 24.3608 4.63 25.3512C4.9383 26.1984 5.40978 26.9677 6.01422 27.6099C6.61866 28.2521 7.34272 28.7531 8.14 29.0806C9.07247 29.4518 10.0574 29.6523 11.053 29.6735C12.333 29.7351 12.741 29.75 16 29.75C19.259 29.75 19.668 29.7351 20.948 29.6735C21.9436 29.6523 22.9285 29.4518 23.861 29.0806C24.6583 28.7531 25.3823 28.2521 25.9868 27.6099C26.5912 26.9677 27.0627 26.1984 27.371 25.3512C27.72 24.3604 27.9083 23.3139 27.928 22.2562C27.986 20.8962 28 20.4638 28 17C28 13.5363 27.986 13.1027 27.928 11.7428C27.9079 10.6853 27.7192 9.63917 27.37 8.64875C27.0617 7.80164 26.5902 7.03232 25.9858 6.39011C25.3813 5.74789 24.6573 5.24694 23.86 4.91938C22.9275 4.54856 21.9425 4.34845 20.947 4.32756C19.667 4.26381 19.26 4.25 16 4.25Z" fill="black"/>
</svg>
