<svg width="27" height="29" viewBox="0 0 27 29" fill="none" xmlns="http://www.w3.org/2000/svg">
<path d="M13.5 2.71875C11.3306 2.71875 9.2099 3.40971 7.40609 4.70425C5.60229 5.99879 4.1964 7.83877 3.3662 9.99151C2.536 12.1443 2.31878 14.5131 2.74202 16.7984C3.16525 19.0837 4.20992 21.183 5.74393 22.8306C7.27793 24.4782 9.23238 25.6003 11.3601 26.0549C13.4878 26.5095 15.6933 26.2761 17.6976 25.3845C19.7018 24.4928 21.4149 22.9827 22.6202 21.0453C23.8254 19.1079 24.4688 16.8301 24.4688 14.5C24.4657 11.3764 23.3091 8.38174 21.2527 6.17304C19.1963 3.96434 16.4082 2.72205 13.5 2.71875ZM14.3438 24.4268V17.2188H16.875C17.0988 17.2188 17.3134 17.1233 17.4716 16.9533C17.6299 16.7834 17.7188 16.5529 17.7188 16.3125C17.7188 16.0721 17.6299 15.8416 17.4716 15.6717C17.3134 15.5017 17.0988 15.4062 16.875 15.4062H14.3438V12.6875C14.3438 12.2068 14.5215 11.7458 14.838 11.4059C15.1545 11.066 15.5837 10.875 16.0313 10.875H17.7188C17.9425 10.875 18.1571 10.7795 18.3154 10.6096C18.4736 10.4396 18.5625 10.2091 18.5625 9.96875C18.5625 9.7284 18.4736 9.49789 18.3154 9.32793C18.1571 9.15798 17.9425 9.0625 17.7188 9.0625H16.0313C15.1361 9.0625 14.2777 9.44442 13.6448 10.1242C13.0118 10.8041 12.6563 11.7261 12.6563 12.6875V15.4062H10.125C9.90123 15.4062 9.68662 15.5017 9.52838 15.6717C9.37015 15.8416 9.28125 16.0721 9.28125 16.3125C9.28125 16.5529 9.37015 16.7834 9.52838 16.9533C9.68662 17.1233 9.90123 17.2188 10.125 17.2188H12.6563V24.4268C10.2777 24.1936 8.07444 22.9845 6.50472 21.051C4.93501 19.1175 4.11969 16.6085 4.22837 14.0458C4.33705 11.4831 5.36135 9.06403 7.08822 7.29181C8.81509 5.51958 11.1116 4.53061 13.5 4.53061C15.8884 4.53061 18.1849 5.51958 19.9118 7.29181C21.6387 9.06403 22.663 11.4831 22.7716 14.0458C22.8803 16.6085 22.065 19.1175 20.4953 21.051C18.9256 22.9845 16.7223 24.1936 14.3438 24.4268Z" fill="black"/>
</svg>
