<svg width="27" height="25" viewBox="0 0 27 25" fill="none" xmlns="http://www.w3.org/2000/svg">
<path d="M24.9231 0H2.07692C1.52609 0 0.997815 0.202609 0.608317 0.563256C0.218818 0.923903 0 1.41305 0 1.92308V23.0769C0 23.587 0.218818 24.0761 0.608317 24.4367C0.997815 24.7974 1.52609 25 2.07692 25H24.9231C25.4739 25 26.0022 24.7974 26.3917 24.4367C26.7812 24.0761 27 23.587 27 23.0769V1.92308C27 1.41305 26.7812 0.923903 26.3917 0.563256C26.0022 0.202609 25.4739 0 24.9231 0ZM9.34615 18.2692C9.34615 18.5242 9.23674 18.7688 9.042 18.9491C8.84725 19.1295 8.58311 19.2308 8.30769 19.2308C8.03228 19.2308 7.76814 19.1295 7.57339 18.9491C7.37864 18.7688 7.26923 18.5242 7.26923 18.2692V10.5769C7.26923 10.3219 7.37864 10.0773 7.57339 9.89701C7.76814 9.71669 8.03228 9.61538 8.30769 9.61538C8.58311 9.61538 8.84725 9.71669 9.042 9.89701C9.23674 10.0773 9.34615 10.3219 9.34615 10.5769V18.2692ZM8.30769 8.65385C7.99961 8.65385 7.69845 8.56926 7.44229 8.41077C7.18612 8.25229 6.98647 8.02703 6.86857 7.76349C6.75067 7.49994 6.71983 7.20994 6.77993 6.93016C6.84003 6.65038 6.98839 6.39338 7.20624 6.19167C7.42408 5.98996 7.70164 5.8526 8.0038 5.79694C8.30596 5.74129 8.61916 5.76985 8.9038 5.87902C9.18843 5.98818 9.43171 6.17305 9.60287 6.41024C9.77403 6.64742 9.86539 6.92628 9.86539 7.21154C9.86539 7.59406 9.70127 7.96092 9.40915 8.2314C9.11702 8.50189 8.72082 8.65385 8.30769 8.65385ZM20.7692 18.2692C20.7692 18.5242 20.6598 18.7688 20.4651 18.9491C20.2703 19.1295 20.0062 19.2308 19.7308 19.2308C19.4554 19.2308 19.1912 19.1295 18.9965 18.9491C18.8017 18.7688 18.6923 18.5242 18.6923 18.2692V13.9423C18.6923 13.3048 18.4188 12.6933 17.9319 12.2425C17.445 11.7917 16.7847 11.5385 16.0962 11.5385C15.4076 11.5385 14.7473 11.7917 14.2604 12.2425C13.7735 12.6933 13.5 13.3048 13.5 13.9423V18.2692C13.5 18.5242 13.3906 18.7688 13.1958 18.9491C13.0011 19.1295 12.737 19.2308 12.4615 19.2308C12.1861 19.2308 11.922 19.1295 11.7272 18.9491C11.5325 18.7688 11.4231 18.5242 11.4231 18.2692V10.5769C11.4244 10.3414 11.519 10.1145 11.6889 9.93928C11.8589 9.76406 12.0924 9.65269 12.3452 9.62631C12.598 9.59992 12.8524 9.66036 13.0602 9.79615C13.2681 9.93194 13.4149 10.1336 13.4727 10.363C14.1752 9.92172 14.9943 9.66598 15.8419 9.62322C16.6896 9.58046 17.5338 9.75229 18.2839 10.1203C19.034 10.4882 19.6617 11.0385 20.0996 11.7118C20.5374 12.3852 20.769 13.1563 20.7692 13.9423V18.2692Z" fill="black"/>
</svg>
